Coordinates
version=1
nRows=27
nColumns=38
inDegrees=no

Units are S.I. units (second, meters, Newtons, ...)
If the header above contains a line with 'inDegrees', this indicates whether rotational values are in degrees (yes) or radians (no).

endheader
time	pelvis_tilt	pelvis_list	pelvis_rotation	pelvis_tx	pelvis_ty	pelvis_tz	hip_flexion_r	hip_adduction_r	hip_rotation_r	knee_angle_r	ankle_angle_r	subtalar_angle_r	mtp_angle_r	hip_flexion_l	hip_adduction_l	hip_rotation_l	knee_angle_l	ankle_angle_l	subtalar_angle_l	mtp_angle_l	lumbar_extension	lumbar_bending	lumbar_rotation	arm_flex_r	arm_add_r	arm_rot_r	elbow_flex_r	pro_sup_r	wrist_flex_r	wrist_dev_r	arm_flex_l	arm_add_l	arm_rot_l	elbow_flex_l	pro_sup_l	wrist_flex_l	wrist_dev_l
10	-0.672267	1.51523	2.39713	0.660785	0.564361	0.978883	0.0122962	-0.0831489	-0.26842	0.195594	0.119603	0	0	-0.0570713	0.0373786	-0.0572907	0	0.0228499	0	0	-0.0197733	-0.0419341	-0.0390283	-0.114355	-0.125878	0.028998	0.250904	1.25164	0	0	-0.175504	-0.293148	0.463258	0.710379	0.849832	0	0
10.01	-0.678827	1.51542	2.40431	0.660958	0.564203	0.978916	0.012461	-0.0831905	-0.268675	0.196652	0.119993	0	0	-0.0567931	0.0372922	-0.0568282	0	0.022909	0	0	-0.0202632	-0.0411292	-0.0392323	-0.11391	-0.1259	0.0284999	0.251014	1.25206	0	0	-0.175959	-0.292563	0.464398	0.709536	0.847604	0	0
10.02	-0.688277	1.51568	2.41427	0.661111	0.564033	0.978958	0.0125189	-0.0833292	-0.268917	0.197759	0.120398	0	0	-0.0566361	0.0372882	-0.0564155	0	0.0229579	0	0	-0.0208654	-0.0402296	-0.0402044	-0.116165	-0.129439	0.0601461	0.25792	1.21171	0	0	-0.177359	-0.291502	0.462876	0.708425	0.851633	0	0
10.03	-0.697683	1.51577	2.42415	0.661265	0.563844	0.978992	0.0129302	-0.0836625	-0.269158	0.199284	0.121039	0	0	-0.0563106	0.0373949	-0.0558647	0	0.0229301	0	0	-0.0216679	-0.0393487	-0.0404914	-0.115174	-0.129445	0.0577698	0.257513	1.2142	0	0	-0.17815	-0.291126	0.464154	0.707595	0.85067	0	0
10.04	-0.708304	1.51572	2.43515	0.66141	0.563624	0.979019	0.0136918	-0.0842628	-0.2694	0.201358	0.121889	0	0	-0.0559286	0.0376719	-0.0551959	0	0.0228619	0	0	-0.0225578	-0.0385499	-0.0406971	-0.113849	-0.129863	0.0564079	0.256728	1.2171	0	0	-0.178959	-0.290801	0.465467	0.706928	0.849759	0	0
10.05	-0.721048	1.5156	2.44821	0.661542	0.563364	0.979033	0.0146988	-0.0851128	-0.269615	0.203945	0.122943	0	0	-0.0556269	0.0381345	-0.0544531	0	0.022777	0	0	-0.0236538	-0.0378282	-0.040764	-0.112611	-0.13049	0.0556156	0.2562	1.21912	0	0	-0.179714	-0.290332	0.466114	0.707162	0.848516	0	0
10.06	-0.736825	1.5156	2.46416	0.661657	0.56307	0.979048	0.0157882	-0.0860931	-0.269838	0.207041	0.124165	0	0	-0.0556461	0.0386689	-0.0536997	0	0.0226367	0	0	-0.0251928	-0.0369554	-0.0407923	-0.111432	-0.131174	0.0541589	0.25625	1.22065	0	0	-0.180523	-0.289703	0.466089	0.708042	0.846972	0	0
10.07	-0.755127	1.51561	2.48249	0.661748	0.562758	0.97908	0.016992	-0.0872229	-0.26991	0.210513	0.125456	0	0	-0.0557374	0.039313	-0.0531801	0	0.0224324	0	0	-0.0270051	-0.0359059	-0.0407808	-0.109953	-0.132095	0.053065	0.255955	1.22235	0	0	-0.181342	-0.289037	0.465936	0.709104	0.845448	0	0
10.08	-0.774038	1.5156	2.50145	0.661821	0.562428	0.97913	0.0183022	-0.0884227	-0.270166	0.214167	0.126602	0	0	-0.0557437	0.0399984	-0.052692	0	0.0221782	0	0	-0.0288903	-0.0346611	-0.0409982	-0.108363	-0.133284	0.0523509	0.255864	1.22421	0	0	-0.182282	-0.288434	0.466092	0.709555	0.844496	0	0
10.09	-0.793143	1.51561	2.52059	0.661871	0.56205	0.979192	0.019927	-0.0897252	-0.270744	0.218354	0.127755	0	0	-0.0556595	0.0407139	-0.0521024	0	0.0219728	0	0	-0.0309972	-0.0332227	-0.0411294	-0.106862	-0.13452	0.0508849	0.256295	1.22604	0	0	-0.182961	-0.287883	0.466916	0.70939	0.844533	0	0
10.1	-0.815629	1.51568	2.54312	0.661895	0.561624	0.979263	0.0214437	-0.0910901	-0.271563	0.222646	0.128893	0	0	-0.0557277	0.041486	-0.0515102	5.71475e-08	0.0217497	0	0	-0.0335451	-0.0317357	-0.0411857	-0.10536	-0.135692	0.0486693	0.256996	1.22811	0	0	-0.183491	-0.287201	0.46665	0.710599	0.844752	0	0
10.11	-0.839852	1.51565	2.56744	0.661901	0.561148	0.979334	0.0230351	-0.0926003	-0.272503	0.227023	0.129966	0	0	-0.0556498	0.0423916	-0.0511826	0.000806196	0.0216928	0	0	-0.0363475	-0.0302419	-0.041286	-0.103363	-0.137083	0.0472069	0.257216	1.2304	0	0	-0.184044	-0.28649	0.465729	0.712469	0.844926	0	0
10.12	-0.861288	1.51562	2.58905	0.661877	0.560647	0.979416	0.0245473	-0.0939342	-0.27318	0.23092	0.130805	0	0	-0.0552456	0.0432309	-0.0511377	0.00246976	0.0218356	0	0	-0.039123	-0.0283865	-0.0415162	-0.101006	-0.1388	0.0467878	0.257056	1.23257	0	0	-0.184739	-0.285851	0.465452	0.713474	0.845439	0	0
10.13	-0.882543	1.51562	2.61047	0.661821	0.560139	0.979495	0.0259759	-0.0952888	-0.27376	0.234792	0.131732	0	0	-0.0547749	0.0440678	-0.0513042	0.0043146	0.0221225	0	0	-0.0418647	-0.0262986	-0.0415111	-0.099054	-0.140617	0.045998	0.257619	1.23443	0	0	-0.185396	-0.285324	0.465497	0.714632	0.84615	0	0
10.14	-0.90899	1.5156	2.63712	0.66176	0.55959	0.979584	0.0272844	-0.0969307	-0.274406	0.239098	0.132956	0	0	-0.0543509	0.0450355	-0.0514352	0.00649999	0.02248	0	0	-0.0450681	-0.024307	-0.041198	-0.096995	-0.142445	0.0454961	0.257987	1.23602	0	0	-0.185778	-0.284965	0.465037	0.717249	0.846932	0	0
10.15	-0.942629	1.51558	2.67073	0.661677	0.558995	0.979698	0.0283487	-0.0989091	-0.274851	0.243621	0.134333	0	0	-0.0538805	0.0461604	-0.052085	0.00950242	0.0231703	0	0	-0.0489837	-0.0222449	-0.0404426	-0.0948677	-0.144332	0.0448851	0.25858	1.23755	0	0	-0.186052	-0.284628	0.46447	0.720396	0.847861	0	0
10.16	-0.982161	1.51581	2.70997	0.661541	0.558359	0.979854	0.0285248	-0.100669	-0.275093	0.246945	0.135016	0	0	-0.0535767	0.0471868	-0.0531682	0.013119	0.0241486	0	0	-0.0537926	-0.019638	-0.0393785	-0.0924814	-0.146439	0.0436053	0.259334	1.23885	0	0	-0.186127	-0.283987	0.463723	0.723458	0.848753	0	0
10.17	-1.02999	1.51657	2.75707	0.661346	0.557695	0.980084	0.027309	-0.101801	-0.275128	0.2484	0.134688	0	0	-0.053946	0.0478577	-0.0543224	0.0168064	0.025257	0	0	-0.0595711	-0.0162185	-0.0374425	-0.0897376	-0.149147	0.042928	0.259597	1.23977	0	0	-0.185566	-0.282846	0.462943	0.726221	0.84973	0	0
10.18	-1.08575	1.51709	2.81143	0.661184	0.557024	0.980285	0.0267986	-0.10345	-0.274352	0.25182	0.135183	0	0	-0.0547643	0.0488273	-0.0555969	0.0202731	0.0264052	0	0	-0.0657531	-0.0128873	-0.0344387	-0.0871558	-0.152055	0.0424089	0.260123	1.24014	0	0	-0.184918	-0.281937	0.462276	0.729511	0.851214	0	0
10.19	-1.1364	1.51685	2.86032	0.66103	0.556261	0.980417	0.0281508	-0.106028	-0.273291	0.257686	0.13672	0	0	-0.0546754	0.0503454	-0.0573728	0.0242846	0.0277338	0	0	-0.0717588	-0.00984742	-0.0306203	-0.0844381	-0.155118	0.0423895	0.260282	1.23993	0	0	-0.184173	-0.281188	0.461683	0.732572	0.853581	0	0
10.2	-1.18206	1.51618	2.90408	0.660867	0.555426	0.980509	0.0303105	-0.10898	-0.272342	0.264352	0.138644	0	0	-0.0536988	0.0521082	-0.059525	0.0292177	0.0294172	0	0	-0.0777995	-0.00685721	-0.026584	-0.081746	-0.158159	0.0415686	0.26088	1.23921	0	0	-0.183351	-0.280248	0.460555	0.735604	0.85664	0	0
10.21	-1.22589	1.51535	2.94616	0.66067	0.554537	0.980579	0.0325657	-0.111977	-0.271552	0.27106	0.140561	0	0	-0.0520471	0.0538741	-0.061854	0.0353455	0.0317388	0	0	-0.0840385	-0.00380931	-0.0225097	-0.0786725	-0.161428	0.04123	0.261144	1.23822	0	0	-0.182299	-0.279288	0.459078	0.739465	0.859561	0	0
10.22	-1.26625	1.51403	2.98416	0.660497	0.553557	0.980604	0.0362139	-0.115592	-0.269776	0.279557	0.142889	0	0	-0.0494479	0.0560462	-0.0651187	0.0427559	0.0346709	0	0	-0.0904286	-0.00114798	-0.017917	-0.0748759	-0.164952	0.0424718	0.260704	1.23709	0	0	-0.181271	-0.27832	0.457155	0.743677	0.862107	0	0
10.23	-1.30003	1.5121	3.01509	0.660331	0.552469	0.980559	0.0418985	-0.120029	-0.266761	0.29088	0.146009	0	0	-0.0456004	0.0587579	-0.069055	0.0515835	0.0381903	0	0	-0.0967919	0.00106155	-0.0130916	-0.0708142	-0.168244	0.0434333	0.260382	1.23477	0	0	-0.180397	-0.27743	0.455179	0.747462	0.864923	0	0
10.24	-1.32554	1.50982	3.03784	0.660124	0.551283	0.980442	0.0490427	-0.12487	-0.263241	0.304002	0.149544	0	0	-0.0404682	0.0617826	-0.0728927	0.061821	0.0422876	0	0	-0.103035	0.00304921	-0.00863698	-0.0666588	-0.171371	0.0431657	0.260737	1.2319	0	0	-0.179805	-0.276398	0.452354	0.75195	0.867574	0	0
10.25	-1.34142	1.50729	3.05108	0.659898	0.550008	0.980234	0.0570705	-0.129807	-0.259582	0.317332	0.152775	0	0	-0.0336754	0.0648919	-0.0769508	0.0740493	0.0471837	0	0	-0.109127	0.00490216	-0.00488115	-0.0620195	-0.174337	0.0419209	0.261558	1.22951	0	0	-0.179834	-0.275311	0.448185	0.757017	0.870072	0	0
10.26	-1.34979	1.50459	3.0571	0.659648	0.548641	0.979933	0.0662484	-0.134901	-0.255784	0.331686	0.155919	0	0	-0.0250397	0.0679524	-0.0815269	0.0887355	0.0531355	0	0	-0.115162	0.00655932	-0.00171476	-0.0566722	-0.177302	0.0411195	0.261975	1.22771	0	0	-0.180072	-0.274309	0.443476	0.76259	0.872322	0	0
